<svg width="240" height="90" viewBox="0 0 240 90" fill="none" xmlns="http://www.w3.org/2000/svg">
<path d="M214.475 58.9603C209.02 55.7785 203.503 51.2057 199.241 45.576C197.947 43.8668 196.768 42.0602 195.743 40.1656C187.277 24.5291 200.575 24.1569 214.317 32.1895C219.83 35.4117 225.414 39.9863 229.693 45.4706C231.064 47.2271 232.3 49.077 233.358 51.0055C241.668 66.1569 228.27 67.0069 214.475 58.9603Z" stroke="url(#paint0_linear_18_14)" stroke-width="7"/>
<path d="M199.241 45.5758C203.187 40.6661 208.608 35.7356 214.317 32.1893C219.405 29.0291 224.722 26.968 229.43 27.0004C239.256 27.0679 236.978 36.2878 229.693 45.4704C225.724 50.4735 220.268 55.4655 214.475 58.96C209.585 61.9092 204.455 63.7918 199.774 63.7145C189.716 63.5484 191.99 54.5971 199.241 45.5758Z" stroke="url(#paint1_linear_18_14)" stroke-width="7"/>
<path d="M2.86866 67.2C1.47704 67.2 0.510806 65.8141 0.992069 64.5083L24.2858 1.30834C24.5755 0.522214 25.3246 0 26.1624 0H34.5059C35.3455 0 36.0958 0.52448 36.3842 1.31307L59.4974 64.5131C59.9746 65.818 59.0085 67.2 57.619 67.2H51.1458C50.2965 67.2 49.5398 66.6636 49.2586 65.8622L44.4374 52.1218C44.1562 51.3204 43.3995 50.784 42.5502 50.784H17.9298C17.0805 50.784 16.3238 51.3204 16.0426 52.1218L11.2214 65.8622C10.9402 66.6636 10.1835 67.2 9.33421 67.2H2.86866ZM20.337 40.0522C19.8759 41.3538 20.8414 42.72 22.2222 42.72H38.2578C39.6386 42.72 40.6041 41.3538 40.143 40.0522L32.1252 17.418C31.496 15.6417 28.984 15.6417 28.3548 17.418L20.337 40.0522Z" fill="white"/>
<path d="M63.7873 67.2C62.6827 67.2 61.7873 66.3046 61.7873 65.2V21.584C61.7873 20.4794 62.6827 19.584 63.7873 19.584H69.0896C70.1203 19.584 70.9823 20.3673 71.0805 21.3934L71.1363 21.9762C71.3254 23.9509 74.3465 24.6892 75.815 23.3556C76.692 22.5593 77.648 21.8461 78.6833 21.216C81.2056 19.6597 84.1554 18.7559 87.5328 18.5046C88.6343 18.4226 89.5312 19.3274 89.5312 20.432V27.088C89.5312 28.1926 88.6358 29.088 87.5313 29.088H86.7473C83.9313 29.088 81.4033 29.568 79.1633 30.528C76.9873 31.424 75.2272 32.992 73.8832 35.232C72.6032 37.408 71.9632 40.448 71.9632 44.352V65.2C71.9632 66.3046 71.0678 67.2 69.9632 67.2H63.7873Z" fill="white"/>
<path d="M108.939 52.608C106.874 52.608 104.941 52.4109 103.139 52.0167C102.446 51.8652 101.715 52.0484 101.208 52.544L99.7043 54.0127C98.782 54.9135 98.9634 56.4187 100.185 56.829C100.286 56.8627 100.388 56.8957 100.491 56.928C101.515 57.248 102.955 57.536 104.811 57.792C106.667 58.048 109.195 58.304 112.395 58.56C118.731 59.136 123.307 60.672 126.123 63.168C128.939 65.6 130.347 68.864 130.347 72.96C130.347 75.776 129.579 78.432 128.043 80.928C126.571 83.488 124.235 85.536 121.035 87.072C117.899 88.672 113.867 89.472 108.939 89.472C102.283 89.472 96.875 88.192 92.715 85.632C88.619 83.136 86.571 79.328 86.571 74.208C86.571 72.224 87.083 70.24 88.107 68.256C88.7314 67.1541 89.556 66.0839 90.5809 65.0453C91.6615 63.9501 91.4282 62.0195 90.1025 61.2387C89.9459 61.1465 89.7927 61.0536 89.643 60.96C88.9482 60.4505 88.3037 59.941 87.7094 59.4314C87.2839 59.0665 87.051 58.5288 87.051 57.9682V57.359C87.051 56.8365 87.2555 56.3348 87.6206 55.9611L93.819 49.6186C94.6253 48.7935 94.5566 47.4668 93.7823 46.6116C91.0868 43.6348 89.739 39.9376 89.739 35.52C89.739 32.384 90.475 29.536 91.947 26.976C93.483 24.352 95.691 22.272 98.571 20.736C101.451 19.2 104.907 18.432 108.939 18.432C111.507 18.432 113.901 18.7826 116.118 19.4838C116.323 19.5486 116.537 19.584 116.752 19.584H132.187C133.292 19.584 134.187 20.4794 134.187 21.584V24.4144C134.187 25.4749 133.359 26.351 132.3 26.4112L129.003 26.5985C127.511 26.6833 126.617 28.3357 127.106 29.7484C127.731 31.5551 128.043 33.479 128.043 35.52C128.043 38.72 127.275 41.6 125.739 44.16C124.267 46.72 122.091 48.768 119.211 50.304C116.395 51.84 112.971 52.608 108.939 52.608ZM108.939 44.64C111.883 44.64 114.251 43.872 116.043 42.336C117.899 40.736 118.827 38.496 118.827 35.616C118.827 32.672 117.899 30.432 116.043 28.896C114.251 27.36 111.883 26.592 108.939 26.592C105.931 26.592 103.499 27.36 101.643 28.896C99.851 30.432 98.955 32.672 98.955 35.616C98.955 38.496 99.851 40.736 101.643 42.336C103.499 43.872 105.931 44.64 108.939 44.64ZM96.171 73.248C96.171 76 97.387 78.048 99.819 79.392C102.251 80.8 105.291 81.504 108.939 81.504C112.459 81.504 115.307 80.736 117.483 79.2C119.659 77.728 120.747 75.744 120.747 73.248C120.747 71.392 120.011 69.792 118.539 68.448C117.067 67.168 114.283 66.368 110.187 66.048C107.403 65.874 104.908 65.6211 102.702 65.2894C102.264 65.2236 101.814 65.2957 101.432 65.519C99.5127 66.6401 98.1751 67.8404 97.419 69.12C96.587 70.528 96.171 71.904 96.171 73.248Z" fill="white"/>
<path d="M155.981 68.352C151.437 68.352 147.341 67.328 143.693 65.28C140.109 63.168 137.261 60.256 135.149 56.544C133.037 52.768 131.98 48.384 131.98 43.392C131.98 38.4 133.037 34.048 135.149 30.336C137.325 26.56 140.237 23.648 143.885 21.6C147.533 19.488 151.597 18.432 156.077 18.432C160.621 18.432 164.685 19.488 168.269 21.6C171.917 23.648 174.797 26.56 176.909 30.336C179.085 34.048 180.173 38.4 180.173 43.392C180.173 48.384 179.085 52.768 176.909 56.544C174.797 60.256 171.917 63.168 168.269 65.28C164.621 67.328 160.525 68.352 155.981 68.352ZM155.981 59.616C158.413 59.616 160.653 59.008 162.701 57.792C164.813 56.576 166.509 54.784 167.789 52.416C169.069 49.984 169.709 46.976 169.709 43.392C169.709 39.808 169.069 36.832 167.789 34.464C166.573 32.032 164.909 30.208 162.797 28.992C160.749 27.776 158.509 27.168 156.077 27.168C153.645 27.168 151.373 27.776 149.261 28.992C147.213 30.208 145.549 32.032 144.269 34.464C142.989 36.832 142.349 39.808 142.349 43.392C142.349 46.976 142.989 49.984 144.269 52.416C145.549 54.784 147.213 56.576 149.261 57.792C151.309 59.008 153.549 59.616 155.981 59.616Z" fill="white"/>
<path d="M148 34.464C146.803 35.8835 146.143 39.921 145.806 43.3598C145.628 45.1764 147.744 46.0452 148.976 44.6981L158.438 34.3495C159.611 33.0661 158.708 31.2018 156.989 31.4632C153.525 31.99 149.256 32.9749 148 34.464Z" fill="white"/>
<defs>
<linearGradient id="paint0_linear_18_14" x1="236" y1="63.9999" x2="186.139" y2="45.1216" gradientUnits="userSpaceOnUse">
<stop stop-color="#B7EAA9"/>
<stop offset="0.5" stop-color="#FF603E"/>
<stop offset="1" stop-color="#712EE0"/>
</linearGradient>
<linearGradient id="paint1_linear_18_14" x1="242" y1="21.5" x2="210.393" y2="78.9872" gradientUnits="userSpaceOnUse">
<stop stop-color="#B7EAA9"/>
<stop offset="0.5" stop-color="#FF603E"/>
<stop offset="1" stop-color="#712EE0"/>
</linearGradient>
</defs>
</svg>
