<svg width="299" height="109" viewBox="0 0 299 109" fill="none" xmlns="http://www.w3.org/2000/svg">
<path d="M90.3839 86.6458C89.7987 87.6278 89.1804 88.5792 88.5289 89.5H96.5L90.3839 86.6458Z" fill="white"/>
<path d="M87.8541 90.427C87.2157 91.2795 86.5476 92.1045 85.8498 92.902L95 94L87.8541 90.427Z" fill="white"/>
<path d="M84.9484 93.8991C84.2305 94.668 83.4832 95.4098 82.7066 96.1246L93 98.5L84.9484 93.8991Z" fill="white"/>
<path d="M82.0534 96.7134C81.1922 97.4734 80.2964 98.2015 79.366 98.8976L91 102L82.0534 96.7134Z" fill="white"/>
<path d="M14.8707 84.1959L0 88L15.887 87.2611C15.5063 86.266 15.1675 85.2443 14.8707 84.1959Z" fill="white"/>
<path d="M18.2755 92.2114C18.015 91.777 17.7631 91.3346 17.52 90.884C17.2586 90.385 17.0094 89.8783 16.7723 89.3639L3.5 96L18.2755 92.2114Z" fill="white"/>
<path d="M19.2677 93.7647L9.5 101L20.933 95.9981C20.3477 95.2817 19.7926 94.5372 19.2677 93.7647Z" fill="white"/>
<path d="M21.9024 97.1283L14 104L24.7972 99.951C23.7681 99.0699 22.8032 98.129 21.9024 97.1283Z" fill="white"/>
<path d="M33.4657 26.7537C36.9122 23.9419 40.6827 21.6161 44.7772 19.7763L40 0L33.4657 26.7537Z" fill="white"/>
<path d="M82.0654 18.0737C85.3695 19.3637 88.2641 21.1143 90.7494 23.3254L91.5 1C89.4791 3.90498 83.8694 15.5689 82.0654 18.0737Z" fill="white"/>
<path d="M94.481 106.5L110.609 14.34H126.993L120.337 52.74C122.982 49.3267 126.268 46.596 130.193 44.548C134.204 42.5 138.598 41.476 143.377 41.476C151.228 41.476 156.86 43.9507 160.273 48.9C163.772 53.8493 164.71 61.1027 163.089 70.66L156.689 106.5H140.305L146.449 72.196C147.388 66.7347 147.004 62.5533 145.297 59.652C143.59 56.7507 140.348 55.3 135.569 55.3C131.046 55.3 127.036 56.9213 123.537 60.164C120.038 63.4067 117.734 67.9293 116.625 73.732V73.604L110.865 106.5H94.481Z" fill="white"/>
<path d="M186.945 33.54C183.958 33.54 181.484 32.644 179.521 30.852C177.644 28.9747 176.705 26.6707 176.705 23.94C176.705 21.2093 177.644 18.948 179.521 17.156C181.484 15.2787 183.958 14.34 186.945 14.34C189.932 14.34 192.364 15.2787 194.241 17.156C196.204 18.948 197.185 21.2093 197.185 23.94C197.185 26.6707 196.204 28.9747 194.241 30.852C192.364 32.644 189.932 33.54 186.945 33.54Z" fill="white"/>
<path d="M164.161 106.5L175.297 43.012H191.681L180.545 106.5H164.161Z" fill="white"/>
<path d="M216.197 106.5C210.394 106.5 205.744 105.305 202.245 102.916C198.832 100.527 197.125 96.388 197.125 90.5C197.125 88.6227 197.338 86.532 197.765 84.228L202.629 56.708H192.389L194.821 43.012H205.061L209.925 25.988H224.517L221.445 43.012H238.725L236.165 56.708H219.141L214.149 84.356C213.978 85.2093 213.893 86.0627 213.893 86.916C213.893 88.964 214.448 90.4147 215.557 91.268C216.752 92.1213 218.672 92.548 221.317 92.548H230.021L227.461 106.5H216.197Z" fill="white"/>
<path fill-rule="evenodd" clip-rule="evenodd" d="M254.099 108.036C246.931 108.036 241.683 106.415 238.355 103.172C235.027 99.844 233.363 95.876 233.363 91.268C233.363 84.4413 236.222 79.0227 241.939 75.012C247.656 71.0013 255.294 68.996 264.851 68.996H280.979L281.235 67.46C281.32 66.948 281.363 66.436 281.363 65.924C281.448 65.3267 281.491 64.8147 281.491 64.388C281.491 61.1453 280.467 58.756 278.419 57.22C276.371 55.5987 273.768 54.788 270.611 54.788C267.283 54.788 264.211 55.5987 261.395 57.22C258.664 58.756 256.702 61.06 255.507 64.132H239.507C240.787 59.524 243.006 55.5133 246.163 52.1C249.406 48.6867 253.331 46.084 257.939 44.292C262.547 42.4147 267.539 41.476 272.915 41.476C280.766 41.476 286.91 43.2253 291.347 46.724C295.87 50.2227 298.131 55.2573 298.131 61.828C298.131 62.6813 298.088 63.62 298.003 64.644C297.918 65.5827 297.79 66.5213 297.619 67.46L290.707 106.5H276.115L276.755 96.644C274.28 99.8867 271.166 102.617 267.411 104.836C263.742 106.969 259.304 108.036 254.099 108.036ZM271.763 90.628C268.691 93.7 264.808 95.236 260.115 95.236C257.384 95.236 255.166 94.724 253.459 93.7C251.838 92.5907 251.027 90.9693 251.027 88.836C251.027 85.8493 252.264 83.5027 254.739 81.796C257.214 80.0893 260.584 79.236 264.851 79.236H278.675C277.224 83.7587 274.92 87.556 271.763 90.628Z" fill="white"/>
<path d="M29.936 103.556C35.3973 106.543 41.968 108.036 49.648 108.036C60.3147 108.036 69.5307 105.476 77.296 100.356C78.0041 99.8865 78.6941 99.4004 79.366 98.8976C80.2964 98.2015 81.1922 97.4734 82.0534 96.7134C82.2734 96.5192 82.4911 96.3229 82.7066 96.1246C83.4832 95.4098 84.2305 94.668 84.9484 93.8991C85.2542 93.5716 85.5547 93.2393 85.8498 92.902C86.5476 92.1045 87.2157 91.2795 87.8541 90.427C88.0828 90.1215 88.3078 89.8125 88.5289 89.5C89.1804 88.5792 89.7987 87.6278 90.3839 86.6458C91.8659 84.1588 93.1353 81.4756 94.192 78.596H76.016C74.0533 83.2893 71.0667 86.916 67.056 89.476C63.1307 92.036 58.224 93.316 52.336 93.316C45.3387 93.316 39.8773 91.3107 35.952 87.3C32.112 83.204 30.192 77.5293 30.192 70.276C30.192 62.6813 31.6427 55.8547 34.544 49.796C37.4453 43.7373 41.3707 38.9587 46.32 35.46C51.2693 31.9613 56.9013 30.212 63.216 30.212C69.104 30.212 73.6267 31.5773 76.784 34.308C79.9413 37.0387 81.6053 40.8787 81.776 45.828H99.952C99.8667 36.1853 96.8373 28.7187 90.864 23.428C90.8259 23.3937 90.7877 23.3595 90.7494 23.3254C88.2641 21.1143 85.3695 19.3637 82.0654 18.0737C77.4385 16.2672 72.0087 15.364 65.776 15.364C58.2667 15.364 51.312 16.8147 44.912 19.716L44.7772 19.7763C40.6827 21.6161 36.9122 23.9419 33.4657 26.7537C31.6439 28.24 29.9127 29.8621 28.272 31.62C23.5787 36.74 19.9093 42.756 17.264 49.668C14.6187 56.58 13.296 64.0467 13.296 72.068C13.296 76.4446 13.8209 80.4873 14.8707 84.1959C15.1675 85.2443 15.5063 86.266 15.887 87.2611C16.1604 87.9758 16.4555 88.6767 16.7723 89.3639C17.0094 89.8783 17.2586 90.385 17.52 90.884C17.7631 91.3346 18.015 91.777 18.2755 92.2114C18.5933 92.7412 18.924 93.259 19.2677 93.7647C19.7926 94.5372 20.3477 95.2817 20.933 95.9981C21.2474 96.3829 21.5706 96.7597 21.9024 97.1283C22.8032 98.129 23.7681 99.0699 24.7972 99.951C26.3618 101.291 28.0747 102.492 29.936 103.556Z" fill="white"/>
</svg>
